<?xml version="1.0" standalone="no"?>
<!DOCTYPE svg PUBLIC "-//W3C//DTD SVG 20010904//EN"
 "http://www.w3.org/TR/2001/REC-SVG-20010904/DTD/svg10.dtd">
<svg version="1.0" xmlns="http://www.w3.org/2000/svg"
 width="340.000000pt" height="340.000000pt" viewBox="0 0 340.000000 340.000000"
 preserveAspectRatio="xMidYMid meet">
<metadata>
Created by potrace 1.14, written by Peter Selinger 2001-2017
</metadata>
<g transform="translate(0.000000,340.000000) scale(0.100000,-0.100000)"
fill="#000000" stroke="none">
<path d="M1912 3125 c-54 -45 -84 -107 -80 -162 l3 -47 -83 3 c-161 6 -453
-61 -552 -126 -19 -13 -39 -23 -43 -23 -5 0 -23 -10 -40 -22 -18 -13 -41 -28
-52 -34 -11 -5 -31 -18 -45 -27 -25 -16 -26 -16 -43 16 -31 55 -63 72 -139 72
-58 0 -72 -4 -109 -30 -24 -17 -56 -48 -72 -70 -25 -35 -27 -46 -23 -96 7 -76
11 -84 63 -119 33 -21 53 -28 71 -23 23 5 23 4 11 -17 -30 -49 -35 -56 -55
-85 -23 -33 -81 -180 -115 -295 -31 -101 -34 -336 -6 -450 51 -206 104 -317
194 -406 56 -55 94 -69 121 -42 20 20 14 34 -35 91 -87 99 -150 232 -184 387
-17 75 -22 257 -10 303 7 23 13 51 15 63 46 254 233 550 418 663 79 47 194
103 258 125 134 44 173 50 325 49 83 -1 168 -6 190 -12 22 -5 72 -17 110 -27
65 -15 161 -52 195 -74 8 -6 48 -27 89 -47 154 -78 301 -293 392 -573 34 -105
34 -105 33 -295 0 -104 -5 -210 -12 -235 -6 -25 -17 -74 -26 -110 -8 -36 -22
-87 -31 -113 -26 -77 1 -91 57 -29 43 47 69 155 109 447 19 136 -3 292 -68
485 -88 262 -158 369 -307 469 -79 54 -228 134 -265 144 l-23 6 21 27 c16 20
21 41 21 86 0 113 -53 164 -178 175 -63 5 -70 4 -100 -22z m107 -80 c17 -8 38
-34 50 -59 18 -37 20 -48 10 -70 -14 -30 -12 -29 -79 -15 -82 17 -105 76 -51
130 34 34 33 34 70 14z m-1174 -377 c21 -10 25 -18 25 -56 0 -62 -26 -102 -65
-102 -43 0 -72 23 -79 65 -8 42 5 69 42 89 33 19 44 19 77 4z"/>
<path d="M1907 2062 c-22 -24 -21 -65 1 -85 23 -21 45 -21 82 -2 57 29 30 105
-37 105 -16 0 -37 -8 -46 -18z"/>
<path d="M1510 1928 c-44 -30 -52 -76 -19 -107 13 -12 31 -21 41 -21 27 0 56
34 64 76 13 68 -27 92 -86 52z"/>
<path d="M1867 1746 c-20 -8 -44 -19 -52 -26 -28 -23 -16 -79 27 -127 23 -25
21 -66 -4 -71 -10 -2 -30 6 -44 17 -49 38 -84 21 -70 -34 13 -52 88 -65 169
-31 25 10 53 13 80 10 53 -7 105 14 141 56 31 37 34 75 7 90 -31 16 -40 12
-62 -25 -23 -38 -57 -53 -86 -37 -15 9 -18 24 -18 92 0 102 -11 113 -88 86z"/>
<path d="M2649 1206 c-8 -17 -9 -33 -1 -55 10 -27 3 -149 -12 -241 -14 -83
-21 -110 -38 -150 -18 -42 -18 -45 -1 -57 9 -8 24 -11 31 -8 8 3 17 5 21 5 4
0 21 23 36 52 32 58 51 149 66 312 10 101 9 111 -9 135 -27 37 -78 41 -93 7z"/>
<path d="M923 1120 c-27 -11 -27 -18 -8 -130 15 -87 26 -131 66 -255 13 -41
22 -92 21 -123 -2 -85 36 -143 138 -210 30 -20 73 -42 95 -50 22 -7 54 -19 70
-27 57 -25 244 -58 303 -52 102 9 194 29 227 47 47 26 107 32 210 20 170 -19
246 -14 367 26 119 39 268 211 241 280 -6 16 -62 29 -72 18 -4 -5 -13 -27 -20
-49 -15 -44 -77 -120 -121 -148 -15 -10 -68 -29 -116 -43 -76 -22 -100 -25
-164 -20 -41 4 -97 13 -125 20 -55 15 -114 12 -160 -9 -129 -57 -282 -79 -376
-52 -30 8 -71 18 -93 22 -21 3 -67 20 -103 36 -35 16 -67 29 -71 29 -4 1 -32
20 -62 43 -55 43 -55 43 -56 99 0 31 -5 63 -10 70 -14 17 -41 93 -49 138 -4
19 -12 40 -17 47 -10 12 -24 94 -35 203 -8 78 -24 92 -80 70z"/>
<path d="M2060 1065 c-7 -9 -14 -67 -17 -156 -7 -153 -3 -142 -70 -195 -18
-14 -33 -33 -33 -41 0 -9 -10 -1 -23 18 -13 20 -37 39 -57 45 -30 10 -38 20
-62 80 -15 38 -34 81 -43 96 -8 14 -15 35 -15 45 0 40 -54 59 -80 28 -15 -18
-6 -77 19 -120 9 -16 30 -65 45 -107 28 -75 30 -78 60 -78 40 0 69 -20 61 -41
-9 -24 -99 -33 -135 -14 -37 19 -59 48 -96 126 -115 237 -116 239 -140 245
-38 10 -57 -2 -50 -31 20 -80 125 -292 177 -359 71 -90 267 -86 313 8 l14 29
16 -32 c10 -18 28 -36 42 -41 71 -27 180 3 224 62 37 50 80 145 91 202 6 28
15 69 21 91 5 22 11 56 11 75 2 30 -2 36 -21 38 -32 5 -58 -22 -66 -66 -15
-96 -96 -303 -129 -331 -19 -15 -74 -18 -89 -3 -15 15 -3 41 25 51 38 15 53
50 56 131 2 41 7 111 11 155 9 84 2 105 -30 105 -10 0 -23 -7 -30 -15z"/>
</g>
</svg>
